<?xml version="1.0" encoding="iso-8859-1"?>
<!-- Generator: Adobe Illustrator 18.1.1, SVG Export Plug-In . SVG Version: 6.00 Build 0)  -->
<svg version="1.1" id="Capa_1" xmlns="http://www.w3.org/2000/svg" xmlns:xlink="http://www.w3.org/1999/xlink" x="0px" y="0px"
	 viewBox="0 0 429.571 429.571" style="enable-background:new 0 0 429.571 429.571;" xml:space="preserve">
<g>
	<path d="M71.986,210.509c4.938,0,4.806-5.407,4.806-5.407V189.3c0-5.5,4.5-10,10-10h42.145c5.5,0,10,4.5,10,10v15.72
		c0,0-0.387,5.489,4.613,5.489c36.35,0,105.562,0,140.749,0c4.875,0,4.649-5.282,4.649-5.282V189.3c0-5.5,4.5-10,10-10h42.145
		c5.5,0,10,4.5,10,10v16.677c0,0-0.169,4.532,4.831,4.532c16.662,0,45.375,0,60.5,0c6.148,0,6.148-5.781,6.148-5.781V100.546
		c0-11.028-8.972-20-20-20c0,0-61.517,0-82.022,0c-4.417,0-4.363-3.86-4.363-3.86V25c0-13.785-11.215-25-25-25H136.698
		c-13.785,0-25,11.215-25,25v50.685c0,0-0.066,4.861-5.732,4.861c-19.741,0-78.965,0-78.965,0c-11.028,0-20,8.972-20,20v102.556
		c0,0,0,7.407,6.631,7.407C29.286,210.509,57.197,210.509,71.986,210.509z M141.698,38.352c0-8.125,6.601-8.352,6.601-8.352h132.25
		c0,0,5.638,0.227,5.638,7.477c0,7.978,0,27.775,0,37.5c0,5.5-4.638,5.569-4.638,5.569h-134.75c0,0-5.101,0.306-5.101-5.319
		C141.698,65.75,141.698,46.205,141.698,38.352z"/>
	<path d="M355.923,230.509c-5,0-4.831,4.968-4.831,4.968v16.246c0,5.5-4.5,10-10,10h-42.145c-5.5,0-10-4.5-10-10v-16.371
		c0,0-0.149-4.843-4.649-4.843c-35.188,0-104.399,0-140.749,0c-4.751,0-4.613,5.761-4.613,5.761v15.453c0,5.5-4.5,10-10,10H86.792
		c-5.5,0-10-4.5-10-10v-16.371c0,0,0.194-4.843-5.118-4.843c-14.716,0-42.033,0-57.75,0C7,230.509,7,237.602,7,237.602v153.603
		c0,11.028,8.972,20,20,20h22.549c3,0,3.499,2.379,3.757,3.517c1.914,8.473,9.946,14.851,19.552,14.851h65.5
		c9.503,0,17.469-6.244,19.488-14.583c0.296-1.221,0.536-3.784,4.369-3.784h103.75c2.917,0,3.743,2.311,3.987,3.418
		c1.873,8.521,9.931,14.949,19.573,14.949h65.5c9.954,0,18.221-6.851,19.734-15.782c0.144-0.844-0.128-2.585,2.872-2.585h24.939
		c11.028,0,20-8.972,20-20V236.478c0,0,0-5.969-6.148-5.969C401.298,230.509,372.585,230.509,355.923,230.509z"/>
</g>
<g>
</g>
<g>
</g>
<g>
</g>
<g>
</g>
<g>
</g>
<g>
</g>
<g>
</g>
<g>
</g>
<g>
</g>
<g>
</g>
<g>
</g>
<g>
</g>
<g>
</g>
<g>
</g>
<g>
</g>
</svg>
