<svg width="424.9824951171875px" height="122.021240234375px" xmlns="http://www.w3.org/2000/svg" viewBox="37.508752441406244 13.9893798828125 424.9824951171875 122.021240234375" style="background: rgba(0, 0, 0, 0);" preserveAspectRatio="xMidYMid"><defs><filter id="editing-extrusion" x="-100%" y="-100%" width="300%" height="300%"><feFlood result="color1" flood-color="#444"></feFlood><feConvolveMatrix order="8,8" divisor="1" kernelMatrix="1 0 0 0 0 0 0 0 0 1 0 0 0 0 0 0 0 0 1 0 0 0 0 0 0 0 0 1 0 0 0 0 0 0 0 0 1 0 0 0 0 0 0 0 0 1 0 0 0 0 0 0 0 0 1 0 0 0 0 0 0 0 0 1" in="SourceAlpha" result="extrude"></feConvolveMatrix><feComposite in="color1" in2="extrude" result="comp-extrude" operator="in"></feComposite><feOffset dx="4" dy="4" in="comp-extrude" result="offset-extrude"></feOffset><feMerge><feMergeNode in="offset-extrude"></feMergeNode><feMergeNode in="SourceGraphic"></feMergeNode></feMerge></filter></defs><g filter="url(#editing-extrusion)"><g transform="translate(100.75499033927917, 104.75218772888184)"><path d="M2.11-6.40L2.11-6.40L2.11-6.40Q2.11-8.13 3.01-12.48L3.01-12.48L6.40-29.76L2.62-29.76L2.88-31.68L2.88-31.68Q10.56-33.98 17.98-39.62L17.98-39.62L21.06-39.62L19.52-32.64L24.51-32.64L23.94-29.76L19.01-29.76L15.74-12.48L15.74-12.48Q14.91-8.51 14.91-7.17L14.91-7.17L14.91-7.17Q14.91-4.10 17.60-3.46L17.60-3.46L17.60-3.46Q16.96-1.28 14.66 0L14.66 0L14.66 0Q12.35 1.28 9.09 1.28L9.09 1.28L9.09 1.28Q5.82 1.28 3.97-0.77L3.97-0.77L3.97-0.77Q2.11-2.82 2.11-6.40ZM43.33-22.46L43.33-22.46L43.33-22.46Q44.22-24.83 44.22-26.88L44.22-26.88L44.22-26.88Q44.22-30.66 41.15-30.66L41.15-30.66L41.15-30.66Q39.55-30.66 38.24-29.22L38.24-29.22L38.24-29.22Q36.93-27.78 36.93-25.98L36.93-25.98L36.93-25.98Q36.93-24.70 37.95-23.68L37.95-23.68L37.95-23.68Q39.42-22.27 43.20-19.97L43.20-19.97L43.20-19.97Q46.98-17.66 48.42-15.78L48.42-15.78L48.42-15.78Q49.86-13.89 49.86-11.30L49.86-11.30L49.86-11.30Q49.86-8.70 48.61-6.34L48.61-6.34L48.61-6.34Q47.36-3.97 45.12-2.30L45.12-2.30L45.12-2.30Q40.32 1.28 32.64 1.28L32.64 1.28L32.64 1.28Q28.48 1.28 25.28-0.90L25.28-0.90L25.28-0.90Q22.08-3.01 22.08-5.50L22.08-5.50L22.08-5.50Q22.08-8 23.90-9.47L23.90-9.47L23.90-9.47Q25.73-10.94 28.42-10.94L28.42-10.94L28.42-10.94Q31.10-10.94 32.77-9.92L32.77-9.92L32.77-9.92Q31.94-7.81 31.94-6.40L31.94-6.40L31.94-6.40Q31.94-2.18 35.52-2.18L35.52-2.18L35.52-2.18Q37.06-2.18 38.08-3.14L38.08-3.14L38.08-3.14Q39.10-4.10 39.10-5.76L39.10-5.76L39.10-5.76Q39.10-9.02 33.60-12.48L33.60-12.48L33.60-12.48Q29.12-15.42 28.10-16.58L28.10-16.58L28.10-16.58Q26.37-18.62 26.37-21.18L26.37-21.18L26.37-21.18Q26.37-23.74 27.58-26.18L27.58-26.18L27.58-26.18Q28.80-28.61 31.04-30.34L31.04-30.34L31.04-30.34Q35.71-33.92 43.84-33.92L43.84-33.92L43.84-33.92Q48-33.92 50.46-32.26L50.46-32.26L50.46-32.26Q52.93-30.59 52.93-27.78L52.93-27.78L52.93-27.78Q52.93-24.96 51.23-23.36L51.23-23.36L51.23-23.36Q49.54-21.76 46.46-21.76L46.46-21.76L46.46-21.76Q44.35-21.76 43.33-22.46ZM57.66-10.37L57.66-10.37L57.66-10.37Q55.62-11.84 55.62-14.66L55.62-14.66L55.62-14.66Q55.62-16.19 56.38-17.44L56.38-17.44L56.38-17.44Q57.15-18.69 58.69-18.88L58.69-18.88L71.30-18.88L71.30-18.88Q73.41-18.88 74.05-20.16L74.05-20.16L74.05-20.16Q75.07-19.58 75.52-18.37L75.52-18.37L75.52-18.37Q75.97-17.15 75.97-15.87L75.97-15.87L75.97-15.87Q75.97-14.59 74.98-13.34L74.98-13.34L74.98-13.34Q73.98-12.10 72.51-11.97L72.51-11.97L60.80-11.97L60.80-11.97Q59.46-11.97 58.82-11.55L58.82-11.55L58.82-11.55Q58.18-11.14 57.66-10.37ZM81.41-6.40L81.41-6.40L81.41-6.40Q81.41-8.13 82.30-12.48L82.30-12.48L85.70-29.76L81.92-29.76L82.18-31.68L82.18-31.68Q89.86-33.98 97.28-39.62L97.28-39.62L100.35-39.62L98.82-32.64L103.81-32.64L103.23-29.76L98.30-29.76L95.04-12.48L95.04-12.48Q94.21-8.51 94.21-7.17L94.21-7.17L94.21-7.17Q94.21-4.10 96.90-3.46L96.90-3.46L96.90-3.46Q96.26-1.28 93.95 0L93.95 0L93.95 0Q91.65 1.28 88.38 1.28L88.38 1.28L88.38 1.28Q85.12 1.28 83.26-0.77L83.26-0.77L83.26-0.77Q81.41-2.82 81.41-6.40ZM117.18 1.28L117.18 1.28L117.18 1.28Q103.10 1.28 103.10-11.97L103.10-11.97L103.10-11.97Q103.10-21.38 108.29-27.46L108.29-27.46L108.29-27.46Q113.79-33.92 123.33-33.92L123.33-33.92L123.33-33.92Q130.24-33.92 133.76-30.72L133.76-30.72L133.76-30.72Q137.28-27.52 137.28-20.80L137.28-20.80L137.28-20.80Q137.28-10.56 131.78-4.61L131.78-4.61L131.78-4.61Q126.40 1.28 117.18 1.28ZM118.85-26.56L118.85-26.56L118.85-26.56Q118.08-24.83 117.47-22.24L117.47-22.24L117.47-22.24Q116.86-19.65 116.10-15.55L116.10-15.55L116.10-15.55Q115.33-11.46 115.33-6.40L115.33-6.40L115.33-6.40Q115.33-4.74 115.87-3.65L115.87-3.65L115.87-3.65Q116.42-2.56 117.89-2.56L117.89-2.56L117.89-2.56Q119.36-2.56 120.29-3.26L120.29-3.26L120.29-3.26Q121.22-3.97 121.92-5.63L121.92-5.63L121.92-5.63Q123.20-8.58 124.22-14.05L124.22-14.05L124.22-14.05Q125.25-19.52 125.34-21.89L125.34-21.89L125.34-21.89Q125.44-24.26 125.44-26.02L125.44-26.02L125.44-26.02Q125.44-27.78 124.93-28.93L124.93-28.93L124.93-28.93Q124.42-30.08 122.98-30.08L122.98-30.08L122.98-30.08Q121.54-30.08 120.58-29.18L120.58-29.18L120.58-29.18Q119.62-28.29 118.85-26.56ZM155.01 1.28L155.01 1.28L155.01 1.28Q140.93 1.28 140.93-11.97L140.93-11.97L140.93-11.97Q140.93-21.38 146.11-27.46L146.11-27.46L146.11-27.46Q151.62-33.92 161.15-33.92L161.15-33.92L161.15-33.92Q168.06-33.92 171.58-30.72L171.58-30.72L171.58-30.72Q175.10-27.52 175.10-20.80L175.10-20.80L175.10-20.80Q175.10-10.56 169.60-4.61L169.60-4.61L169.60-4.61Q164.22 1.28 155.01 1.28ZM156.67-26.56L156.67-26.56L156.67-26.56Q155.90-24.83 155.30-22.24L155.30-22.24L155.30-22.24Q154.69-19.65 153.92-15.55L153.92-15.55L153.92-15.55Q153.15-11.46 153.15-6.40L153.15-6.40L153.15-6.40Q153.15-4.74 153.70-3.65L153.70-3.65L153.70-3.65Q154.24-2.56 155.71-2.56L155.71-2.56L155.71-2.56Q157.18-2.56 158.11-3.26L158.11-3.26L158.11-3.26Q159.04-3.97 159.74-5.63L159.74-5.63L159.74-5.63Q161.02-8.58 162.05-14.05L162.05-14.05L162.05-14.05Q163.07-19.52 163.17-21.89L163.17-21.89L163.17-21.89Q163.26-24.26 163.26-26.02L163.26-26.02L163.26-26.02Q163.26-27.78 162.75-28.93L162.75-28.93L162.75-28.93Q162.24-30.08 160.80-30.08L160.80-30.08L160.80-30.08Q159.36-30.08 158.40-29.18L158.40-29.18L158.40-29.18Q157.44-28.29 156.67-26.56ZM194.18-3.52L194.18-3.52L194.18-3.52Q192.19 1.28 185.86 1.28L185.86 1.28L185.86 1.28Q182.66 1.28 180.61-0.96L180.61-0.96L180.61-0.96Q178.94-2.82 178.94-4.93L178.94-4.93L178.94-4.93Q178.94-9.73 181.18-20.22L181.18-20.22L185.86-44.80L198.85-46.08L192.64-13.70L192.64-13.70Q191.55-8.96 191.55-7.30L191.55-7.30L191.55-7.30Q191.55-3.65 194.18-3.52ZM214.98-3.52L214.98-3.52L214.98-3.52Q212.99 1.28 206.66 1.28L206.66 1.28L206.66 1.28Q203.39 1.28 201.34-0.96L201.34-0.96L201.34-0.96Q199.62-2.94 199.62-4.93L199.62-4.93L199.62-4.93Q199.62-10.11 201.98-20.22L201.98-20.22L204.35-32.64L217.34-33.92L213.44-13.70L213.44-13.70Q212.35-8.96 212.35-7.30L212.35-7.30L212.35-7.30Q212.35-3.65 214.98-3.52ZM205.50-41.54L205.50-41.54L205.50-41.54Q205.50-44.03 207.58-45.38L207.58-45.38L207.58-45.38Q209.66-46.72 212.67-46.72L212.67-46.72L212.67-46.72Q215.68-46.72 217.50-45.38L217.50-45.38L217.50-45.38Q219.33-44.03 219.33-41.54L219.33-41.54L219.33-41.54Q219.33-39.04 217.31-37.76L217.31-37.76L217.31-37.76Q215.30-36.48 212.29-36.48L212.29-36.48L212.29-36.48Q209.28-36.48 207.39-37.76L207.39-37.76L207.39-37.76Q205.50-39.04 205.50-41.54ZM247.49 1.28L247.49 1.28L247.49 1.28Q239.74 1.28 239.74-4.74L239.74-4.74L239.74-4.74Q239.81-6.40 240.32-9.22L240.32-9.22L241.47-15.10L241.47-15.10Q243.20-23.42 243.20-25.28L243.20-25.28L243.20-25.28Q243.20-28.99 241.02-28.99L241.02-28.99L241.02-28.99Q237.38-28.99 235.46-19.46L235.46-19.46L231.68 0L218.82 1.28L225.47-32.70L235.97-33.92L234.94-27.65L234.94-27.65Q237.95-33.92 247.17-33.92L247.17-33.92L247.17-33.92Q251.65-33.92 253.54-32.03L253.54-32.03L253.54-32.03Q255.42-30.14 255.42-25.92L255.42-25.92L255.42-25.92Q255.42-21.95 253.38-12.67L253.38-12.67L253.38-12.67Q252.42-8.51 252.42-6.94L252.42-6.94L252.42-6.94Q252.42-5.38 253.28-4.48L253.28-4.48L253.28-4.48Q254.14-3.58 255.42-3.46L255.42-3.46L255.42-3.46Q254.78-1.28 252.58 0L252.58 0L252.58 0Q250.37 1.28 247.49 1.28ZM265.09-26.75L265.09-26.75L265.09-26.75Q267.26-29.82 270.56-31.87L270.56-31.87L270.56-31.87Q273.86-33.92 277.89-33.92L277.89-33.92L277.89-33.92Q281.92-33.92 283.84-32.64L283.84-32.64L296.38-33.92L292.03-9.34L292.03-9.34Q289.79 3.20 285.06 8.13L285.06 8.13L285.06 8.13Q280.51 12.80 271.68 12.80L271.68 12.80L271.68 12.80Q264.96 12.80 261.12 10.69L261.12 10.69L261.12 10.69Q257.28 8.58 257.28 5.06L257.28 5.06L257.28 5.06Q257.28 2.43 259.26 0.93L259.26 0.93L259.26 0.93Q261.25-0.58 264.32-0.58L264.32-0.58L264.32-0.58Q267.01-0.58 269.06 0.64L269.06 0.64L269.06 0.64Q270.27 1.28 270.85 2.18L270.85 2.18L270.85 2.18Q269.38 3.46 269.38 5.57L269.38 5.57L269.38 5.57Q269.38 8.32 271.94 8.32L271.94 8.32L271.94 8.32Q276.22 8.32 278.66-1.79L278.66-1.79L278.66-1.79Q279.36-4.54 279.94-7.30L279.94-7.30L279.94-7.30Q277.06-3.78 270.53-3.78L270.53-3.78L270.53-3.78Q265.98-3.78 263.36-5.95L263.36-5.95L263.36-5.95Q260.74-8.13 260.74-13.25L260.74-13.25L260.74-13.25Q260.74-16.45 261.82-20.06L261.82-20.06L261.82-20.06Q262.91-23.68 265.09-26.75ZM273.41-13.06L273.41-13.06L273.41-13.06Q273.41-8.70 275.65-8.70L275.65-8.70L275.65-8.70Q277.18-8.70 278.66-10.37L278.66-10.37L278.66-10.37Q279.81-11.71 280.26-13.70L280.26-13.70L283.52-30.14L283.52-30.14Q283.20-30.21 282.88-30.34L282.88-30.34L282.88-30.34Q282.24-30.59 281.41-30.59L281.41-30.59L281.41-30.59Q277.50-30.59 275.20-24.19L275.20-24.19L275.20-24.19Q273.41-19.20 273.41-13.06Z" fill="#ccc"></path></g></g><style>text {
  font-size: 64px;
  font-family: Arial Black;
  dominant-baseline: central;
  text-anchor: middle;
}</style></svg>